<mxfile host="Electron" modified="2023-06-24T06:14:43.991Z" agent="Mozilla/5.0 (Windows NT 10.0; Win64; x64) AppleWebKit/537.36 (KHTML, like Gecko) draw.io/21.2.8 Chrome/112.0.5615.165 Electron/24.2.0 Safari/537.36" etag="p-HIbA0bUArxjNSdcM-V" version="21.2.8" type="device">
  <diagram id="R2lEEEUBdFMjLlhIrx00" name="Page-1">
    <mxGraphModel dx="1422" dy="1940" grid="1" gridSize="10" guides="1" tooltips="1" connect="1" arrows="1" fold="1" page="1" pageScale="1" pageWidth="850" pageHeight="1100" math="0" shadow="0" extFonts="Permanent Marker^https://fonts.googleapis.com/css?family=Permanent+Marker">
      <root>
        <mxCell id="0" />
        <mxCell id="1" parent="0" />
        <mxCell id="wlwZPpyVBdOegZFEEY2a-1" value="LEARNER" style="rounded=0;whiteSpace=wrap;html=1;" vertex="1" parent="1">
          <mxGeometry x="160" y="270" width="120" height="60" as="geometry" />
        </mxCell>
        <mxCell id="wlwZPpyVBdOegZFEEY2a-2" value="&lt;font style=&quot;font-size: 10px;&quot;&gt;LEARNERS_ID&lt;/font&gt;" style="ellipse;whiteSpace=wrap;html=1;" vertex="1" parent="1">
          <mxGeometry y="160" width="100" height="40" as="geometry" />
        </mxCell>
        <mxCell id="wlwZPpyVBdOegZFEEY2a-3" value="&lt;font style=&quot;font-size: 10px;&quot;&gt;LEARNERS_NAME&lt;/font&gt;" style="ellipse;whiteSpace=wrap;html=1;" vertex="1" parent="1">
          <mxGeometry x="110" y="160" width="100" height="40" as="geometry" />
        </mxCell>
        <mxCell id="wlwZPpyVBdOegZFEEY2a-4" value="&lt;font style=&quot;font-size: 10px;&quot;&gt;LEARNERS_EMAIL&lt;/font&gt;" style="ellipse;whiteSpace=wrap;html=1;" vertex="1" parent="1">
          <mxGeometry x="220" y="160" width="100" height="40" as="geometry" />
        </mxCell>
        <mxCell id="wlwZPpyVBdOegZFEEY2a-5" value="&lt;font style=&quot;font-size: 10px;&quot;&gt;LEARNERS_PASSWORD&lt;/font&gt;" style="ellipse;whiteSpace=wrap;html=1;" vertex="1" parent="1">
          <mxGeometry x="350" y="160" width="120" height="40" as="geometry" />
        </mxCell>
        <mxCell id="wlwZPpyVBdOegZFEEY2a-11" value="" style="endArrow=none;html=1;rounded=0;entryX=0.5;entryY=1;entryDx=0;entryDy=0;exitX=0.5;exitY=0;exitDx=0;exitDy=0;" edge="1" parent="1" source="wlwZPpyVBdOegZFEEY2a-1" target="wlwZPpyVBdOegZFEEY2a-4">
          <mxGeometry width="50" height="50" relative="1" as="geometry">
            <mxPoint x="220" y="280" as="sourcePoint" />
            <mxPoint x="270" y="220" as="targetPoint" />
          </mxGeometry>
        </mxCell>
        <mxCell id="wlwZPpyVBdOegZFEEY2a-12" value="" style="endArrow=none;html=1;rounded=0;exitX=0.5;exitY=0;exitDx=0;exitDy=0;entryX=0.5;entryY=1;entryDx=0;entryDy=0;" edge="1" parent="1" source="wlwZPpyVBdOegZFEEY2a-1" target="wlwZPpyVBdOegZFEEY2a-3">
          <mxGeometry width="50" height="50" relative="1" as="geometry">
            <mxPoint x="120" y="260" as="sourcePoint" />
            <mxPoint x="170" y="210" as="targetPoint" />
          </mxGeometry>
        </mxCell>
        <mxCell id="wlwZPpyVBdOegZFEEY2a-13" value="" style="endArrow=none;html=1;rounded=0;entryX=0.5;entryY=1;entryDx=0;entryDy=0;exitX=0.5;exitY=0;exitDx=0;exitDy=0;" edge="1" parent="1" source="wlwZPpyVBdOegZFEEY2a-1" target="wlwZPpyVBdOegZFEEY2a-5">
          <mxGeometry width="50" height="50" relative="1" as="geometry">
            <mxPoint x="220" y="270" as="sourcePoint" />
            <mxPoint x="400" y="210" as="targetPoint" />
          </mxGeometry>
        </mxCell>
        <mxCell id="wlwZPpyVBdOegZFEEY2a-14" value="" style="endArrow=none;html=1;rounded=0;entryX=0.5;entryY=1;entryDx=0;entryDy=0;exitX=0.5;exitY=0;exitDx=0;exitDy=0;" edge="1" parent="1" source="wlwZPpyVBdOegZFEEY2a-1" target="wlwZPpyVBdOegZFEEY2a-2">
          <mxGeometry width="50" height="50" relative="1" as="geometry">
            <mxPoint x="230" y="280" as="sourcePoint" />
            <mxPoint x="405" y="220" as="targetPoint" />
          </mxGeometry>
        </mxCell>
        <mxCell id="wlwZPpyVBdOegZFEEY2a-15" value="&lt;font style=&quot;font-size: 10px;&quot;&gt;ENROLL&lt;/font&gt;" style="rhombus;whiteSpace=wrap;html=1;" vertex="1" parent="1">
          <mxGeometry x="180" y="370" width="80" height="60" as="geometry" />
        </mxCell>
        <mxCell id="wlwZPpyVBdOegZFEEY2a-16" value="COURSE" style="rounded=0;whiteSpace=wrap;html=1;" vertex="1" parent="1">
          <mxGeometry x="520" y="450" width="120" height="60" as="geometry" />
        </mxCell>
        <mxCell id="wlwZPpyVBdOegZFEEY2a-17" value="ADMIN" style="rounded=0;whiteSpace=wrap;html=1;" vertex="1" parent="1">
          <mxGeometry x="160" y="50" width="120" height="60" as="geometry" />
        </mxCell>
        <mxCell id="wlwZPpyVBdOegZFEEY2a-18" value="INSTRUCTOR" style="rounded=0;whiteSpace=wrap;html=1;" vertex="1" parent="1">
          <mxGeometry x="860" y="50" width="120" height="60" as="geometry" />
        </mxCell>
        <mxCell id="wlwZPpyVBdOegZFEEY2a-19" value="&lt;font style=&quot;font-size: 10px;&quot;&gt;MANAGE&lt;/font&gt;" style="rhombus;whiteSpace=wrap;html=1;" vertex="1" parent="1">
          <mxGeometry x="440" y="50" width="80" height="60" as="geometry" />
        </mxCell>
        <mxCell id="wlwZPpyVBdOegZFEEY2a-20" value="" style="endArrow=none;html=1;rounded=0;entryX=0;entryY=0.5;entryDx=0;entryDy=0;exitX=1;exitY=0.5;exitDx=0;exitDy=0;" edge="1" parent="1" source="wlwZPpyVBdOegZFEEY2a-17" target="wlwZPpyVBdOegZFEEY2a-19">
          <mxGeometry width="50" height="50" relative="1" as="geometry">
            <mxPoint x="340" y="100" as="sourcePoint" />
            <mxPoint x="390" y="50" as="targetPoint" />
          </mxGeometry>
        </mxCell>
        <mxCell id="wlwZPpyVBdOegZFEEY2a-22" value="&lt;font style=&quot;font-size: 10px;&quot;&gt;MANAGE&lt;/font&gt;" style="rhombus;whiteSpace=wrap;html=1;" vertex="1" parent="1">
          <mxGeometry x="880" y="300" width="80" height="60" as="geometry" />
        </mxCell>
        <mxCell id="wlwZPpyVBdOegZFEEY2a-23" value="" style="endArrow=none;html=1;rounded=0;entryX=0;entryY=0.5;entryDx=0;entryDy=0;exitX=1;exitY=0.5;exitDx=0;exitDy=0;" edge="1" parent="1" source="wlwZPpyVBdOegZFEEY2a-19" target="wlwZPpyVBdOegZFEEY2a-18">
          <mxGeometry width="50" height="50" relative="1" as="geometry">
            <mxPoint x="570" y="130" as="sourcePoint" />
            <mxPoint x="620" y="80" as="targetPoint" />
          </mxGeometry>
        </mxCell>
        <mxCell id="wlwZPpyVBdOegZFEEY2a-24" value="" style="endArrow=none;html=1;rounded=0;entryX=0.5;entryY=1;entryDx=0;entryDy=0;exitX=0.5;exitY=0;exitDx=0;exitDy=0;" edge="1" parent="1" source="wlwZPpyVBdOegZFEEY2a-22" target="wlwZPpyVBdOegZFEEY2a-18">
          <mxGeometry width="50" height="50" relative="1" as="geometry">
            <mxPoint x="680" y="260" as="sourcePoint" />
            <mxPoint x="730" y="210" as="targetPoint" />
          </mxGeometry>
        </mxCell>
        <mxCell id="wlwZPpyVBdOegZFEEY2a-26" value="" style="endArrow=none;html=1;rounded=0;exitX=0.5;exitY=0;exitDx=0;exitDy=0;entryX=0.5;entryY=1;entryDx=0;entryDy=0;" edge="1" parent="1" source="wlwZPpyVBdOegZFEEY2a-15" target="wlwZPpyVBdOegZFEEY2a-1">
          <mxGeometry width="50" height="50" relative="1" as="geometry">
            <mxPoint x="170" y="380" as="sourcePoint" />
            <mxPoint x="220" y="330" as="targetPoint" />
          </mxGeometry>
        </mxCell>
        <mxCell id="wlwZPpyVBdOegZFEEY2a-28" value="" style="endArrow=none;html=1;rounded=0;entryX=0.5;entryY=1;entryDx=0;entryDy=0;exitX=1;exitY=0.5;exitDx=0;exitDy=0;" edge="1" parent="1" source="wlwZPpyVBdOegZFEEY2a-16" target="wlwZPpyVBdOegZFEEY2a-22">
          <mxGeometry width="50" height="50" relative="1" as="geometry">
            <mxPoint x="740" y="480" as="sourcePoint" />
            <mxPoint x="750" y="380" as="targetPoint" />
            <Array as="points">
              <mxPoint x="920" y="480" />
            </Array>
          </mxGeometry>
        </mxCell>
        <mxCell id="wlwZPpyVBdOegZFEEY2a-29" value="" style="endArrow=none;html=1;rounded=0;exitX=0;exitY=0.5;exitDx=0;exitDy=0;entryX=0.5;entryY=1;entryDx=0;entryDy=0;" edge="1" parent="1" source="wlwZPpyVBdOegZFEEY2a-16" target="wlwZPpyVBdOegZFEEY2a-15">
          <mxGeometry width="50" height="50" relative="1" as="geometry">
            <mxPoint x="170" y="480" as="sourcePoint" />
            <mxPoint x="220" y="430" as="targetPoint" />
            <Array as="points">
              <mxPoint x="220" y="480" />
            </Array>
          </mxGeometry>
        </mxCell>
        <mxCell id="wlwZPpyVBdOegZFEEY2a-30" value="&lt;font style=&quot;font-size: 10px;&quot;&gt;HAS&lt;/font&gt;" style="rhombus;whiteSpace=wrap;html=1;" vertex="1" parent="1">
          <mxGeometry x="540" y="570" width="80" height="60" as="geometry" />
        </mxCell>
        <mxCell id="wlwZPpyVBdOegZFEEY2a-31" value="COURSE_DETAILS" style="rounded=0;whiteSpace=wrap;html=1;" vertex="1" parent="1">
          <mxGeometry x="160" y="670" width="120" height="60" as="geometry" />
        </mxCell>
        <mxCell id="wlwZPpyVBdOegZFEEY2a-32" value="RATING" style="rounded=0;whiteSpace=wrap;html=1;" vertex="1" parent="1">
          <mxGeometry x="940" y="670" width="120" height="60" as="geometry" />
        </mxCell>
        <mxCell id="wlwZPpyVBdOegZFEEY2a-33" value="" style="endArrow=none;html=1;rounded=0;exitX=0.5;exitY=0;exitDx=0;exitDy=0;entryX=0.5;entryY=1;entryDx=0;entryDy=0;" edge="1" parent="1" source="wlwZPpyVBdOegZFEEY2a-30" target="wlwZPpyVBdOegZFEEY2a-16">
          <mxGeometry width="50" height="50" relative="1" as="geometry">
            <mxPoint x="430" y="560" as="sourcePoint" />
            <mxPoint x="480" y="510" as="targetPoint" />
          </mxGeometry>
        </mxCell>
        <mxCell id="wlwZPpyVBdOegZFEEY2a-34" value="" style="endArrow=none;html=1;rounded=0;entryX=0.5;entryY=1;entryDx=0;entryDy=0;exitX=1;exitY=0.5;exitDx=0;exitDy=0;" edge="1" parent="1" source="wlwZPpyVBdOegZFEEY2a-31" target="wlwZPpyVBdOegZFEEY2a-30">
          <mxGeometry width="50" height="50" relative="1" as="geometry">
            <mxPoint x="425" y="690" as="sourcePoint" />
            <mxPoint x="475" y="640" as="targetPoint" />
            <Array as="points">
              <mxPoint x="580" y="700" />
            </Array>
          </mxGeometry>
        </mxCell>
        <mxCell id="wlwZPpyVBdOegZFEEY2a-35" value="" style="endArrow=none;html=1;rounded=0;entryX=0;entryY=0.5;entryDx=0;entryDy=0;exitX=0.5;exitY=1;exitDx=0;exitDy=0;" edge="1" parent="1" source="wlwZPpyVBdOegZFEEY2a-30" target="wlwZPpyVBdOegZFEEY2a-32">
          <mxGeometry width="50" height="50" relative="1" as="geometry">
            <mxPoint x="490" y="700" as="sourcePoint" />
            <mxPoint x="595" y="660" as="targetPoint" />
            <Array as="points">
              <mxPoint x="580" y="700" />
            </Array>
          </mxGeometry>
        </mxCell>
        <mxCell id="wlwZPpyVBdOegZFEEY2a-37" value="&lt;font style=&quot;font-size: 10px;&quot;&gt;ADMIN_ID&lt;/font&gt;" style="ellipse;whiteSpace=wrap;html=1;" vertex="1" parent="1">
          <mxGeometry y="-80" width="100" height="40" as="geometry" />
        </mxCell>
        <mxCell id="wlwZPpyVBdOegZFEEY2a-38" value="&lt;font style=&quot;font-size: 10px;&quot;&gt;ADMIN_NAME&lt;/font&gt;" style="ellipse;whiteSpace=wrap;html=1;" vertex="1" parent="1">
          <mxGeometry x="120" y="-80" width="100" height="40" as="geometry" />
        </mxCell>
        <mxCell id="wlwZPpyVBdOegZFEEY2a-39" value="&lt;font style=&quot;font-size: 10px;&quot;&gt;ADMIN_EMAIL&lt;/font&gt;" style="ellipse;whiteSpace=wrap;html=1;" vertex="1" parent="1">
          <mxGeometry x="230" y="-80" width="100" height="40" as="geometry" />
        </mxCell>
        <mxCell id="wlwZPpyVBdOegZFEEY2a-40" value="&lt;font style=&quot;font-size: 10px;&quot;&gt;ADMIN_PASSWORD&lt;/font&gt;" style="ellipse;whiteSpace=wrap;html=1;" vertex="1" parent="1">
          <mxGeometry x="340" y="-80" width="100" height="40" as="geometry" />
        </mxCell>
        <mxCell id="wlwZPpyVBdOegZFEEY2a-41" value="&lt;font style=&quot;font-size: 10px;&quot;&gt;INST_EMAIL&lt;/font&gt;" style="ellipse;whiteSpace=wrap;html=1;" vertex="1" parent="1">
          <mxGeometry x="880" y="-80" width="100" height="40" as="geometry" />
        </mxCell>
        <mxCell id="wlwZPpyVBdOegZFEEY2a-42" value="&lt;font style=&quot;font-size: 10px;&quot;&gt;COURSE_ID&lt;/font&gt;" style="ellipse;whiteSpace=wrap;html=1;" vertex="1" parent="1">
          <mxGeometry x="780" y="-80" width="100" height="40" as="geometry" />
        </mxCell>
        <mxCell id="wlwZPpyVBdOegZFEEY2a-43" value="&lt;font style=&quot;font-size: 10px;&quot;&gt;INST_NAME&lt;/font&gt;" style="ellipse;whiteSpace=wrap;html=1;" vertex="1" parent="1">
          <mxGeometry x="650" y="-80" width="100" height="40" as="geometry" />
        </mxCell>
        <mxCell id="wlwZPpyVBdOegZFEEY2a-44" value="&lt;font style=&quot;font-size: 10px;&quot;&gt;INST_ID&lt;/font&gt;" style="ellipse;whiteSpace=wrap;html=1;" vertex="1" parent="1">
          <mxGeometry x="520" y="-80" width="100" height="40" as="geometry" />
        </mxCell>
        <mxCell id="wlwZPpyVBdOegZFEEY2a-45" value="&lt;font style=&quot;font-size: 10px;&quot;&gt;INST_PASSWORD&lt;/font&gt;" style="ellipse;whiteSpace=wrap;html=1;" vertex="1" parent="1">
          <mxGeometry x="1000" y="-80" width="100" height="40" as="geometry" />
        </mxCell>
        <mxCell id="wlwZPpyVBdOegZFEEY2a-46" value="&lt;font style=&quot;font-size: 10px;&quot;&gt;INST_QUALIFICATION&lt;/font&gt;" style="ellipse;whiteSpace=wrap;html=1;" vertex="1" parent="1">
          <mxGeometry x="1110" y="-80" width="110" height="40" as="geometry" />
        </mxCell>
        <mxCell id="wlwZPpyVBdOegZFEEY2a-47" value="&lt;font style=&quot;font-size: 10px;&quot;&gt;TOPIC_ID&lt;/font&gt;" style="ellipse;whiteSpace=wrap;html=1;" vertex="1" parent="1">
          <mxGeometry x="130" y="800" width="100" height="40" as="geometry" />
        </mxCell>
        <mxCell id="wlwZPpyVBdOegZFEEY2a-48" value="&lt;font style=&quot;font-size: 10px;&quot;&gt;COURSE_ID&lt;/font&gt;" style="ellipse;whiteSpace=wrap;html=1;" vertex="1" parent="1">
          <mxGeometry x="310" y="320" width="100" height="40" as="geometry" />
        </mxCell>
        <mxCell id="wlwZPpyVBdOegZFEEY2a-49" value="&lt;font style=&quot;font-size: 10px;&quot;&gt;COURSE_IMAGE&lt;/font&gt;" style="ellipse;whiteSpace=wrap;html=1;" vertex="1" parent="1">
          <mxGeometry x="740" y="320" width="100" height="40" as="geometry" />
        </mxCell>
        <mxCell id="wlwZPpyVBdOegZFEEY2a-50" value="&lt;font style=&quot;font-size: 10px;&quot;&gt;COURSE_DESCRIPTION&lt;br&gt;&lt;/font&gt;" style="ellipse;whiteSpace=wrap;html=1;" vertex="1" parent="1">
          <mxGeometry x="590" y="320" width="120" height="40" as="geometry" />
        </mxCell>
        <mxCell id="wlwZPpyVBdOegZFEEY2a-51" value="&lt;font style=&quot;font-size: 10px;&quot;&gt;COURSE_NAME&lt;/font&gt;" style="ellipse;whiteSpace=wrap;html=1;" vertex="1" parent="1">
          <mxGeometry x="460" y="320" width="100" height="40" as="geometry" />
        </mxCell>
        <mxCell id="wlwZPpyVBdOegZFEEY2a-52" value="&lt;font style=&quot;font-size: 10px;&quot;&gt;COURSE_ID&lt;/font&gt;" style="ellipse;whiteSpace=wrap;html=1;" vertex="1" parent="1">
          <mxGeometry x="10" y="800" width="100" height="40" as="geometry" />
        </mxCell>
        <mxCell id="wlwZPpyVBdOegZFEEY2a-53" value="&lt;font style=&quot;font-size: 10px;&quot;&gt;TOPIC_NAME&lt;/font&gt;" style="ellipse;whiteSpace=wrap;html=1;" vertex="1" parent="1">
          <mxGeometry x="260" y="800" width="100" height="40" as="geometry" />
        </mxCell>
        <mxCell id="wlwZPpyVBdOegZFEEY2a-54" value="&lt;font style=&quot;font-size: 10px;&quot;&gt;TOPIC_FILE&lt;/font&gt;" style="ellipse;whiteSpace=wrap;html=1;" vertex="1" parent="1">
          <mxGeometry x="400" y="800" width="100" height="40" as="geometry" />
        </mxCell>
        <mxCell id="wlwZPpyVBdOegZFEEY2a-55" value="&lt;font style=&quot;font-size: 10px;&quot;&gt;COURSE_ID&lt;/font&gt;" style="ellipse;whiteSpace=wrap;html=1;" vertex="1" parent="1">
          <mxGeometry x="1090" y="800" width="100" height="40" as="geometry" />
        </mxCell>
        <mxCell id="wlwZPpyVBdOegZFEEY2a-56" value="&lt;font style=&quot;font-size: 10px;&quot;&gt;FEEDBACK&lt;/font&gt;" style="ellipse;whiteSpace=wrap;html=1;" vertex="1" parent="1">
          <mxGeometry x="1210" y="800" width="100" height="40" as="geometry" />
        </mxCell>
        <mxCell id="wlwZPpyVBdOegZFEEY2a-57" value="&lt;font style=&quot;font-size: 10px;&quot;&gt;RATING_ID&lt;/font&gt;" style="ellipse;whiteSpace=wrap;html=1;" vertex="1" parent="1">
          <mxGeometry x="680" y="800" width="100" height="40" as="geometry" />
        </mxCell>
        <mxCell id="wlwZPpyVBdOegZFEEY2a-58" value="&lt;font style=&quot;font-size: 10px;&quot;&gt;RATING_VALUE&lt;/font&gt;" style="ellipse;whiteSpace=wrap;html=1;" vertex="1" parent="1">
          <mxGeometry x="830" y="800" width="100" height="40" as="geometry" />
        </mxCell>
        <mxCell id="wlwZPpyVBdOegZFEEY2a-59" value="&lt;font style=&quot;font-size: 10px;&quot;&gt;USER_ID&lt;/font&gt;" style="ellipse;whiteSpace=wrap;html=1;" vertex="1" parent="1">
          <mxGeometry x="960" y="800" width="100" height="40" as="geometry" />
        </mxCell>
        <mxCell id="wlwZPpyVBdOegZFEEY2a-60" style="edgeStyle=orthogonalEdgeStyle;rounded=0;orthogonalLoop=1;jettySize=auto;html=1;exitX=0.5;exitY=1;exitDx=0;exitDy=0;" edge="1" parent="1" source="wlwZPpyVBdOegZFEEY2a-57" target="wlwZPpyVBdOegZFEEY2a-57">
          <mxGeometry relative="1" as="geometry" />
        </mxCell>
        <mxCell id="wlwZPpyVBdOegZFEEY2a-65" value="" style="endArrow=none;html=1;rounded=0;entryX=0.5;entryY=1;entryDx=0;entryDy=0;exitX=0.5;exitY=0;exitDx=0;exitDy=0;" edge="1" parent="1" source="wlwZPpyVBdOegZFEEY2a-17" target="wlwZPpyVBdOegZFEEY2a-40">
          <mxGeometry width="50" height="50" relative="1" as="geometry">
            <mxPoint x="230" y="80" as="sourcePoint" />
            <mxPoint x="400" y="20" as="targetPoint" />
          </mxGeometry>
        </mxCell>
        <mxCell id="wlwZPpyVBdOegZFEEY2a-66" value="" style="endArrow=none;html=1;rounded=0;entryX=0.5;entryY=1;entryDx=0;entryDy=0;" edge="1" parent="1" target="wlwZPpyVBdOegZFEEY2a-39">
          <mxGeometry width="50" height="50" relative="1" as="geometry">
            <mxPoint x="220" y="50" as="sourcePoint" />
            <mxPoint x="390" y="10" as="targetPoint" />
          </mxGeometry>
        </mxCell>
        <mxCell id="wlwZPpyVBdOegZFEEY2a-67" value="" style="endArrow=none;html=1;rounded=0;entryX=0.5;entryY=1;entryDx=0;entryDy=0;" edge="1" parent="1" target="wlwZPpyVBdOegZFEEY2a-38">
          <mxGeometry width="50" height="50" relative="1" as="geometry">
            <mxPoint x="220" y="50" as="sourcePoint" />
            <mxPoint x="390" y="10" as="targetPoint" />
          </mxGeometry>
        </mxCell>
        <mxCell id="wlwZPpyVBdOegZFEEY2a-68" value="" style="endArrow=none;html=1;rounded=0;entryX=0.5;entryY=1;entryDx=0;entryDy=0;" edge="1" parent="1" target="wlwZPpyVBdOegZFEEY2a-37">
          <mxGeometry width="50" height="50" relative="1" as="geometry">
            <mxPoint x="220" y="50" as="sourcePoint" />
            <mxPoint x="400" y="20" as="targetPoint" />
          </mxGeometry>
        </mxCell>
        <mxCell id="wlwZPpyVBdOegZFEEY2a-69" value="" style="endArrow=none;html=1;rounded=0;entryX=0.5;entryY=0;entryDx=0;entryDy=0;exitX=0.5;exitY=1;exitDx=0;exitDy=0;" edge="1" parent="1" source="wlwZPpyVBdOegZFEEY2a-44" target="wlwZPpyVBdOegZFEEY2a-18">
          <mxGeometry width="50" height="50" relative="1" as="geometry">
            <mxPoint x="250" y="80" as="sourcePoint" />
            <mxPoint x="410" y="30" as="targetPoint" />
          </mxGeometry>
        </mxCell>
        <mxCell id="wlwZPpyVBdOegZFEEY2a-70" value="" style="endArrow=none;html=1;rounded=0;entryX=0.5;entryY=0;entryDx=0;entryDy=0;exitX=0.5;exitY=1;exitDx=0;exitDy=0;" edge="1" parent="1" source="wlwZPpyVBdOegZFEEY2a-43" target="wlwZPpyVBdOegZFEEY2a-18">
          <mxGeometry width="50" height="50" relative="1" as="geometry">
            <mxPoint x="260" y="90" as="sourcePoint" />
            <mxPoint x="420" y="40" as="targetPoint" />
          </mxGeometry>
        </mxCell>
        <mxCell id="wlwZPpyVBdOegZFEEY2a-71" value="" style="endArrow=none;html=1;rounded=0;entryX=0.5;entryY=0;entryDx=0;entryDy=0;exitX=0.5;exitY=1;exitDx=0;exitDy=0;" edge="1" parent="1" source="wlwZPpyVBdOegZFEEY2a-42" target="wlwZPpyVBdOegZFEEY2a-18">
          <mxGeometry width="50" height="50" relative="1" as="geometry">
            <mxPoint x="270" y="100" as="sourcePoint" />
            <mxPoint x="430" y="50" as="targetPoint" />
          </mxGeometry>
        </mxCell>
        <mxCell id="wlwZPpyVBdOegZFEEY2a-76" value="" style="endArrow=none;html=1;rounded=0;entryX=0.5;entryY=0;entryDx=0;entryDy=0;exitX=0.5;exitY=1;exitDx=0;exitDy=0;" edge="1" parent="1" source="wlwZPpyVBdOegZFEEY2a-41" target="wlwZPpyVBdOegZFEEY2a-18">
          <mxGeometry width="50" height="50" relative="1" as="geometry">
            <mxPoint x="700" y="10" as="sourcePoint" />
            <mxPoint x="930" y="60" as="targetPoint" />
          </mxGeometry>
        </mxCell>
        <mxCell id="wlwZPpyVBdOegZFEEY2a-77" value="" style="endArrow=none;html=1;rounded=0;entryX=0.5;entryY=0;entryDx=0;entryDy=0;" edge="1" parent="1" target="wlwZPpyVBdOegZFEEY2a-52">
          <mxGeometry width="50" height="50" relative="1" as="geometry">
            <mxPoint x="210" y="730" as="sourcePoint" />
            <mxPoint x="150" y="840" as="targetPoint" />
          </mxGeometry>
        </mxCell>
        <mxCell id="wlwZPpyVBdOegZFEEY2a-78" value="" style="endArrow=none;html=1;rounded=0;exitX=0.5;exitY=1;exitDx=0;exitDy=0;" edge="1" parent="1" source="wlwZPpyVBdOegZFEEY2a-46">
          <mxGeometry width="50" height="50" relative="1" as="geometry">
            <mxPoint x="820" y="20" as="sourcePoint" />
            <mxPoint x="920" y="50" as="targetPoint" />
          </mxGeometry>
        </mxCell>
        <mxCell id="wlwZPpyVBdOegZFEEY2a-79" value="" style="endArrow=none;html=1;rounded=0;exitX=0.5;exitY=1;exitDx=0;exitDy=0;" edge="1" parent="1" source="wlwZPpyVBdOegZFEEY2a-45">
          <mxGeometry width="50" height="50" relative="1" as="geometry">
            <mxPoint x="830" y="30" as="sourcePoint" />
            <mxPoint x="920" y="50" as="targetPoint" />
          </mxGeometry>
        </mxCell>
        <mxCell id="wlwZPpyVBdOegZFEEY2a-80" value="" style="endArrow=none;html=1;rounded=0;entryX=0.5;entryY=0;entryDx=0;entryDy=0;" edge="1" parent="1" target="wlwZPpyVBdOegZFEEY2a-47">
          <mxGeometry width="50" height="50" relative="1" as="geometry">
            <mxPoint x="210" y="730" as="sourcePoint" />
            <mxPoint x="90" y="810" as="targetPoint" />
          </mxGeometry>
        </mxCell>
        <mxCell id="wlwZPpyVBdOegZFEEY2a-81" value="" style="endArrow=none;html=1;rounded=0;exitX=0.5;exitY=0;exitDx=0;exitDy=0;" edge="1" parent="1" source="wlwZPpyVBdOegZFEEY2a-53">
          <mxGeometry width="50" height="50" relative="1" as="geometry">
            <mxPoint x="480" y="530" as="sourcePoint" />
            <mxPoint x="210" y="730" as="targetPoint" />
          </mxGeometry>
        </mxCell>
        <mxCell id="wlwZPpyVBdOegZFEEY2a-82" value="" style="endArrow=none;html=1;rounded=0;exitX=0.5;exitY=0;exitDx=0;exitDy=0;" edge="1" parent="1" source="wlwZPpyVBdOegZFEEY2a-54">
          <mxGeometry width="50" height="50" relative="1" as="geometry">
            <mxPoint x="435" y="520" as="sourcePoint" />
            <mxPoint x="210" y="730" as="targetPoint" />
          </mxGeometry>
        </mxCell>
        <mxCell id="wlwZPpyVBdOegZFEEY2a-83" value="" style="endArrow=none;html=1;rounded=0;exitX=0.5;exitY=0;exitDx=0;exitDy=0;entryX=0.5;entryY=1;entryDx=0;entryDy=0;" edge="1" parent="1" source="wlwZPpyVBdOegZFEEY2a-57" target="wlwZPpyVBdOegZFEEY2a-32">
          <mxGeometry width="50" height="50" relative="1" as="geometry">
            <mxPoint x="890" y="670" as="sourcePoint" />
            <mxPoint x="650" y="600" as="targetPoint" />
          </mxGeometry>
        </mxCell>
        <mxCell id="wlwZPpyVBdOegZFEEY2a-84" value="" style="endArrow=none;html=1;rounded=0;entryX=0.5;entryY=0;entryDx=0;entryDy=0;" edge="1" parent="1" target="wlwZPpyVBdOegZFEEY2a-58">
          <mxGeometry width="50" height="50" relative="1" as="geometry">
            <mxPoint x="1000" y="730" as="sourcePoint" />
            <mxPoint x="650" y="570" as="targetPoint" />
          </mxGeometry>
        </mxCell>
        <mxCell id="wlwZPpyVBdOegZFEEY2a-85" value="" style="endArrow=none;html=1;rounded=0;exitX=0.5;exitY=0;exitDx=0;exitDy=0;entryX=0.5;entryY=1;entryDx=0;entryDy=0;" edge="1" parent="1" source="wlwZPpyVBdOegZFEEY2a-16" target="wlwZPpyVBdOegZFEEY2a-48">
          <mxGeometry width="50" height="50" relative="1" as="geometry">
            <mxPoint x="900" y="600" as="sourcePoint" />
            <mxPoint x="660" y="530" as="targetPoint" />
          </mxGeometry>
        </mxCell>
        <mxCell id="wlwZPpyVBdOegZFEEY2a-86" value="" style="endArrow=none;html=1;rounded=0;entryX=0.5;entryY=0;entryDx=0;entryDy=0;" edge="1" parent="1" target="wlwZPpyVBdOegZFEEY2a-56">
          <mxGeometry width="50" height="50" relative="1" as="geometry">
            <mxPoint x="1000" y="730" as="sourcePoint" />
            <mxPoint x="670" y="540" as="targetPoint" />
          </mxGeometry>
        </mxCell>
        <mxCell id="wlwZPpyVBdOegZFEEY2a-87" value="" style="endArrow=none;html=1;rounded=0;exitX=0.5;exitY=1;exitDx=0;exitDy=0;entryX=0.5;entryY=0;entryDx=0;entryDy=0;" edge="1" parent="1" source="wlwZPpyVBdOegZFEEY2a-32" target="wlwZPpyVBdOegZFEEY2a-55">
          <mxGeometry width="50" height="50" relative="1" as="geometry">
            <mxPoint x="920" y="620" as="sourcePoint" />
            <mxPoint x="680" y="550" as="targetPoint" />
          </mxGeometry>
        </mxCell>
        <mxCell id="wlwZPpyVBdOegZFEEY2a-88" value="" style="endArrow=none;html=1;rounded=0;exitX=0.5;exitY=1;exitDx=0;exitDy=0;entryX=0.5;entryY=0;entryDx=0;entryDy=0;" edge="1" parent="1" source="wlwZPpyVBdOegZFEEY2a-32" target="wlwZPpyVBdOegZFEEY2a-59">
          <mxGeometry width="50" height="50" relative="1" as="geometry">
            <mxPoint x="930" y="630" as="sourcePoint" />
            <mxPoint x="690" y="560" as="targetPoint" />
          </mxGeometry>
        </mxCell>
        <mxCell id="wlwZPpyVBdOegZFEEY2a-89" value="" style="endArrow=none;html=1;rounded=0;entryX=0.5;entryY=1;entryDx=0;entryDy=0;exitX=0.5;exitY=0;exitDx=0;exitDy=0;" edge="1" parent="1" source="wlwZPpyVBdOegZFEEY2a-16" target="wlwZPpyVBdOegZFEEY2a-51">
          <mxGeometry width="50" height="50" relative="1" as="geometry">
            <mxPoint x="590" y="460" as="sourcePoint" />
            <mxPoint x="370" y="370" as="targetPoint" />
          </mxGeometry>
        </mxCell>
        <mxCell id="wlwZPpyVBdOegZFEEY2a-91" value="" style="endArrow=none;html=1;rounded=0;entryX=0.5;entryY=1;entryDx=0;entryDy=0;exitX=0.5;exitY=0;exitDx=0;exitDy=0;" edge="1" parent="1" source="wlwZPpyVBdOegZFEEY2a-16" target="wlwZPpyVBdOegZFEEY2a-50">
          <mxGeometry width="50" height="50" relative="1" as="geometry">
            <mxPoint x="630" y="445" as="sourcePoint" />
            <mxPoint x="540" y="355" as="targetPoint" />
          </mxGeometry>
        </mxCell>
        <mxCell id="wlwZPpyVBdOegZFEEY2a-92" value="" style="endArrow=none;html=1;rounded=0;entryX=0.5;entryY=1;entryDx=0;entryDy=0;exitX=0.5;exitY=0;exitDx=0;exitDy=0;" edge="1" parent="1" source="wlwZPpyVBdOegZFEEY2a-16" target="wlwZPpyVBdOegZFEEY2a-49">
          <mxGeometry width="50" height="50" relative="1" as="geometry">
            <mxPoint x="690" y="460" as="sourcePoint" />
            <mxPoint x="600" y="370" as="targetPoint" />
          </mxGeometry>
        </mxCell>
        <mxCell id="wlwZPpyVBdOegZFEEY2a-93" style="edgeStyle=orthogonalEdgeStyle;rounded=0;orthogonalLoop=1;jettySize=auto;html=1;exitX=0.5;exitY=1;exitDx=0;exitDy=0;" edge="1" parent="1" source="wlwZPpyVBdOegZFEEY2a-2" target="wlwZPpyVBdOegZFEEY2a-2">
          <mxGeometry relative="1" as="geometry" />
        </mxCell>
        <mxCell id="wlwZPpyVBdOegZFEEY2a-94" value="1" style="text;html=1;align=center;verticalAlign=middle;resizable=0;points=[];autosize=1;strokeColor=none;fillColor=none;" vertex="1" parent="1">
          <mxGeometry x="345" y="48" width="30" height="30" as="geometry" />
        </mxCell>
        <mxCell id="wlwZPpyVBdOegZFEEY2a-95" value="M" style="text;html=1;align=center;verticalAlign=middle;resizable=0;points=[];autosize=1;strokeColor=none;fillColor=none;" vertex="1" parent="1">
          <mxGeometry x="655" y="48" width="30" height="30" as="geometry" />
        </mxCell>
        <mxCell id="wlwZPpyVBdOegZFEEY2a-96" value="1" style="text;html=1;align=center;verticalAlign=middle;resizable=0;points=[];autosize=1;strokeColor=none;fillColor=none;" vertex="1" parent="1">
          <mxGeometry x="935" y="168" width="30" height="30" as="geometry" />
        </mxCell>
        <mxCell id="wlwZPpyVBdOegZFEEY2a-97" value="M" style="text;html=1;align=center;verticalAlign=middle;resizable=0;points=[];autosize=1;strokeColor=none;fillColor=none;" vertex="1" parent="1">
          <mxGeometry x="725" y="478" width="30" height="30" as="geometry" />
        </mxCell>
        <mxCell id="wlwZPpyVBdOegZFEEY2a-98" value="1" style="text;html=1;align=center;verticalAlign=middle;resizable=0;points=[];autosize=1;strokeColor=none;fillColor=none;" vertex="1" parent="1">
          <mxGeometry x="185" y="328" width="30" height="30" as="geometry" />
        </mxCell>
        <mxCell id="wlwZPpyVBdOegZFEEY2a-99" value="M" style="text;html=1;align=center;verticalAlign=middle;resizable=0;points=[];autosize=1;strokeColor=none;fillColor=none;" vertex="1" parent="1">
          <mxGeometry x="345" y="488" width="30" height="30" as="geometry" />
        </mxCell>
        <mxCell id="wlwZPpyVBdOegZFEEY2a-100" value="M" style="text;html=1;align=center;verticalAlign=middle;resizable=0;points=[];autosize=1;strokeColor=none;fillColor=none;" vertex="1" parent="1">
          <mxGeometry x="415" y="648" width="30" height="30" as="geometry" />
        </mxCell>
        <mxCell id="wlwZPpyVBdOegZFEEY2a-101" value="M" style="text;html=1;align=center;verticalAlign=middle;resizable=0;points=[];autosize=1;strokeColor=none;fillColor=none;" vertex="1" parent="1">
          <mxGeometry x="795" y="658" width="30" height="30" as="geometry" />
        </mxCell>
        <mxCell id="wlwZPpyVBdOegZFEEY2a-102" value="1" style="text;html=1;align=center;verticalAlign=middle;resizable=0;points=[];autosize=1;strokeColor=none;fillColor=none;" vertex="1" parent="1">
          <mxGeometry x="595" y="528" width="30" height="30" as="geometry" />
        </mxCell>
      </root>
    </mxGraphModel>
  </diagram>
</mxfile>
